<?xml version="1.0" encoding="UTF-8"?>
<svg version="1.1" xmlns="http://www.w3.org/2000/svg" width="1024" height="1024">
<path d="M0 0 C2.18987329 0.80564341 3.54144342 1.72916313 5.3203125 3.23022461 C6.25230469 4.00462891 6.25230469 4.00462891 7.203125 4.79467773 C8.19892578 5.63675781 8.19892578 5.63675781 9.21484375 6.49584961 C14.89408537 11.20941136 20.63845475 15.79690473 26.52734375 20.24584961 C32.1390399 24.49529083 37.65090666 28.84000848 43.08984375 33.30834961 C48.97557505 38.14065438 54.98368472 42.76338883 61.10009766 47.29907227 C66.26854969 51.14351116 71.30474091 55.13041353 76.31494141 59.17797852 C80.27118624 62.3650971 84.27215999 65.48278401 88.3190918 68.55395508 C90.45355184 70.17477501 92.57888425 71.80698035 94.703125 73.44116211 C97.67341577 75.72474719 100.6753147 77.95822791 103.6953125 80.17553711 C105.18184722 81.30201041 106.6675534 82.42957807 108.15234375 83.55834961 C109.21086548 84.31233032 109.21086548 84.31233032 110.29077148 85.08154297 C112.16900213 86.53632316 113.6492482 87.81034179 115.02734375 89.74584961 C115.13122125 92.96951465 114.87413742 94.73229789 114.02734375 97.74584961 C113.82254395 98.63248291 113.61774414 99.51911621 113.40673828 100.43261719 C103.41257425 142.87431238 84.21971761 182.39227344 56.02734375 215.74584961 C55.15730225 216.78860996 54.28753008 217.83159506 53.41796875 218.87475586 C48.44944446 224.81099447 43.39275222 230.65439296 38.17578125 236.37475586 C36.78711312 237.90734051 35.41587444 239.4559823 34.06640625 241.02319336 C29.04468621 246.80490551 23.64413423 252.10261204 18.08984375 257.37084961 C17.33123047 258.09481934 16.57261719 258.81878906 15.79101562 259.56469727 C15.07623047 260.23549316 14.36144531 260.90628906 13.625 261.59741211 C12.98054932 262.20407715 12.33609863 262.81074219 11.67211914 263.43579102 C10.02734375 264.74584961 10.02734375 264.74584961 8.02734375 264.74584961 C8.02734375 265.40584961 8.02734375 266.06584961 8.02734375 266.74584961 C6.37250767 268.24462464 4.65143863 269.67073434 2.90234375 271.05834961 C1.90203125 271.86530273 0.90171875 272.67225586 -0.12890625 273.50366211 C-1.73633733 274.77105969 -3.35421969 276.02615198 -5.00390625 277.23803711 C-7.50186966 279.11150967 -8.8421581 280.28138846 -9.69921875 283.33178711 C-10.04373257 287.63328819 -9.46443547 291.45084468 -8.72265625 295.68334961 C-8.58424316 296.51656738 -8.44583008 297.34978516 -8.30322266 298.20825195 C-7.41729917 303.45071667 -6.41157107 308.66188051 -5.34765625 313.87084961 C-2.36685464 328.525157 -1.12161424 343.37020073 -5.97265625 357.74584961 C-6.28976562 358.69588867 -6.606875 359.64592773 -6.93359375 360.62475586 C-11.91395192 373.88805014 -21.04589061 385.13683922 -29.73583984 396.16625977 C-31.77938897 398.77616163 -33.77717101 401.42104428 -35.78515625 404.05834961 C-39.62477145 409.07761486 -43.59276792 413.98283502 -47.59765625 418.87084961 C-52.62580117 425.00827387 -57.41537082 431.24724319 -61.97265625 437.74584961 C-64.60544881 436.48027805 -67.03334152 435.11268265 -69.44140625 433.46069336 C-70.08972412 433.01661133 -70.73804199 432.5725293 -71.40600586 432.11499023 C-72.08800049 431.64254883 -72.76999512 431.17010742 -73.47265625 430.68334961 C-74.52755249 429.95341797 -74.52755249 429.95341797 -75.60375977 429.20874023 C-80.07270291 426.10079111 -84.52199867 422.96704511 -88.91015625 419.74584961 C-89.86792969 419.04459961 -90.82570313 418.34334961 -91.8125 417.62084961 C-93.97265625 415.74584961 -93.97265625 415.74584961 -94.97265625 412.74584961 C-94.07983398 410.94335938 -94.07983398 410.94335938 -92.65625 408.93725586 C-92.14175293 408.19588379 -91.62725586 407.45451172 -91.09716797 406.69067383 C-90.5404541 405.90450684 -89.98374023 405.11833984 -89.41015625 404.30834961 C-80.99816716 392.06094358 -74.56792164 380.84496835 -74.59765625 365.62084961 C-74.59854248 364.79842773 -74.59942871 363.97600586 -74.6003418 363.12866211 C-74.74650402 355.48370993 -75.39537051 345.84393351 -80.609375 339.87084961 C-81.05925781 339.49959961 -81.50914062 339.12834961 -81.97265625 338.74584961 C-82.41996094 339.19057617 -82.86726562 339.63530273 -83.328125 340.09350586 C-83.93269531 340.6594043 -84.53726563 341.22530273 -85.16015625 341.80834961 C-86.04767578 342.66106445 -86.04767578 342.66106445 -86.953125 343.53100586 C-88.97265625 344.74584961 -88.97265625 344.74584961 -91.2734375 344.76928711 C-95.11661527 343.31210538 -97.8511491 340.93913243 -100.97265625 338.30834961 C-102.31422648 337.20571837 -103.65668951 336.10417258 -105 335.00366211 C-105.6688623 334.45226562 -106.33772461 333.90086914 -107.02685547 333.33276367 C-109.8179914 331.05642948 -112.66969616 328.8648709 -115.53515625 326.68334961 C-120.01808469 323.25575292 -124.47535398 319.79802 -128.91015625 316.30834961 C-129.4937793 315.84920166 -130.07740234 315.39005371 -130.67871094 314.91699219 C-133.57809281 312.63450858 -136.47514985 310.34909904 -139.37109375 308.06225586 C-146.38388384 302.53092774 -153.45206257 297.07953982 -160.56103516 291.67236328 C-166.10731981 287.44040296 -171.56852409 283.11063363 -176.97631836 278.703125 C-179.70940381 276.48937602 -182.42677623 274.41621595 -185.3984375 272.53100586 C-186.24792969 271.9419043 -187.09742188 271.35280273 -187.97265625 270.74584961 C-187.97265625 270.08584961 -187.97265625 269.42584961 -187.97265625 268.74584961 C-188.63265625 268.74584961 -189.29265625 268.74584961 -189.97265625 268.74584961 C-188.19320538 264.7016431 -185.57735952 261.28506474 -182.97265625 257.74584961 C-191.85431068 252.6477342 -207.09124065 254.81630039 -216.66015625 257.37084961 C-226.65344598 260.78929317 -234.30048408 265.54570872 -241.87890625 272.89038086 C-243.97265625 274.74584961 -243.97265625 274.74584961 -246.97265625 275.74584961 C-246.97265625 276.40584961 -246.97265625 277.06584961 -246.97265625 277.74584961 C-247.63265625 277.74584961 -248.29265625 277.74584961 -248.97265625 277.74584961 C-248.97265625 278.40584961 -248.97265625 279.06584961 -248.97265625 279.74584961 C-250.66015625 281.93334961 -250.66015625 281.93334961 -252.97265625 283.74584961 C-258.3427076 283.71645152 -262.04922892 279.92844626 -266.03515625 276.74584961 C-267.54519228 275.56437338 -269.05561161 274.38338688 -270.56640625 273.20288086 C-271.30890625 272.61845215 -272.05140625 272.03402344 -272.81640625 271.43188477 C-275.85655461 269.05470354 -278.94044501 266.73878325 -282.03515625 264.43334961 C-282.99550781 263.7153418 -283.95585937 262.99733398 -284.9453125 262.25756836 C-285.61433594 261.75870117 -286.28335937 261.25983398 -286.97265625 260.74584961 C-285.57098271 256.58556326 -283.61282914 253.90339697 -280.72265625 250.62084961 C-276.25517954 245.42734563 -272.13858285 240.02638574 -268.09765625 234.49584961 C-267.50267334 233.68204834 -266.90769043 232.86824707 -266.29467773 232.02978516 C-265.09784278 230.39137112 -263.90146848 228.75262047 -262.70556641 227.11352539 C-258.65517618 221.57947574 -254.54152346 216.09330866 -250.39746094 210.62915039 C-249.44885587 209.37528825 -248.50417456 208.11844777 -247.56347656 206.85864258 C-233.52191166 188.07596146 -218.16808092 176.11305159 -194.80688477 172.21801758 C-190.5655073 171.69571105 -186.42015671 171.55691481 -182.15234375 171.49975586 C-180.46614012 171.4668444 -178.77994233 171.43363233 -177.09375 171.40014648 C-174.46276491 171.35264601 -171.83180797 171.30811427 -169.20068359 171.26904297 C-166.64267477 171.229275 -164.08510738 171.1777801 -161.52734375 171.12475586 C-160.35218704 171.11213463 -160.35218704 171.11213463 -159.15328979 171.09925842 C-155.03698234 171.00641213 -151.571091 170.8434546 -147.97265625 168.74584961 C-146.4690907 166.87260992 -146.4690907 166.87260992 -145.4296875 164.55444336 C-144.78725098 163.27476685 -144.78725098 163.27476685 -144.13183594 161.96923828 C-143.46522949 160.59022339 -143.46522949 160.59022339 -142.78515625 159.18334961 C-141.81056483 157.24940499 -140.83265416 155.31712978 -139.8515625 153.38647461 C-139.12283936 151.94498047 -139.12283936 151.94498047 -138.37939453 150.47436523 C-134.89470616 143.71544867 -130.93487661 137.23238778 -126.97265625 130.74584961 C-126.4209375 129.83963867 -125.86921875 128.93342773 -125.30078125 127.99975586 C-113.57964501 108.81276545 -101.23361234 90.15082952 -86.97265625 72.74584961 C-86.52325684 72.19348633 -86.07385742 71.64112305 -85.61083984 71.07202148 C-79.14937794 63.15965309 -72.29752569 55.86534888 -64.97265625 48.74584961 C-64.16441406 47.93374023 -63.35617187 47.12163086 -62.5234375 46.28491211 C-48.24287924 32.06996131 -32.56861953 20.11895421 -15.97265625 8.74584961 C-14.95631104 8.04322998 -14.95631104 8.04322998 -13.91943359 7.32641602 C-12.00961149 6.01320908 -10.08806215 4.71981661 -8.16015625 3.43334961 C-7.59167969 3.04195801 -7.02320313 2.65056641 -6.4375 2.24731445 C-2.50641569 -0.32291816 -2.50641569 -0.32291816 0 0 Z M-39.34765625 97.49584961 C-49.88775322 108.7972698 -53.83456023 120.38066275 -53.3203125 135.61694336 C-52.58486181 147.17063651 -46.20660443 157.26499183 -37.95703125 165.11303711 C-27.18345301 173.97791055 -14.72880682 176.78265234 -0.97265625 175.74584961 C12.09189916 173.32846249 22.60550962 167.37815132 30.33984375 156.37084961 C37.44344526 144.94589051 39.80619055 132.97814893 36.90234375 119.80834961 C33.2893185 106.56627123 25.80456813 96.6974491 14.02734375 89.74584961 C-3.83042675 80.84377783 -24.93490877 83.75295996 -39.34765625 97.49584961 Z " fill="#498EEA" transform="translate(660.97265625,298.254150390625)"/>
<path d="M0 0 C2.45703125 1.62890625 2.45703125 1.62890625 4.8125 3.5625 C5.60269531 4.20316406 6.39289063 4.84382812 7.20703125 5.50390625 C7.79871094 5.99761719 8.39039063 6.49132812 9 7 C6.20064963 9.88683007 3.36578077 12.52002289 0.25 15.0625 C-8.16731161 22.38397293 -14.16343395 32.04315872 -19 42 C-19.50273437 43.02222656 -20.00546875 44.04445313 -20.5234375 45.09765625 C-30.32101454 66.35889576 -32.42636723 88.88142104 -32 112 C-3.85442287 110.04931644 22.25673159 97.69922734 41.15576172 76.69458008 C48.77586537 67.83098692 54.60545046 57.82075012 59 47 C62.43950364 47.61198376 64.51564485 48.92058847 67.25 51.0625 C67.95640625 51.61035156 68.6628125 52.15820312 69.390625 52.72265625 C70.18726563 53.35494141 70.18726563 53.35494141 71 54 C68.8577205 76.53087056 48.33061388 100.71638268 31.74609375 114.84375 C28.60901759 117.39611055 25.3523016 119.73975823 22 122 C21.14849365 122.57524414 21.14849365 122.57524414 20.27978516 123.16210938 C-1.31285552 137.46536206 -31.75814397 149.40581372 -58 148 C-59.62441396 142.1918913 -60.43183554 136.76799408 -60.6875 130.75 C-60.72512451 129.88157471 -60.76274902 129.01314941 -60.80151367 128.1184082 C-62.16461206 90.03062363 -53.35803715 50.1336542 -29 20 C-28.37351562 19.21625 -27.74703125 18.4325 -27.1015625 17.625 C-9.56660417 -3.32173756 -9.56660417 -3.32173756 0 0 Z " fill="#4786E8" transform="translate(459,620)"/>
<path d="M0 0 C2.08994224 2.66704933 2.39009374 5.11280638 3.01342773 8.43334961 C3.13761581 9.08160706 3.26180389 9.7298645 3.38975525 10.39776611 C3.65137913 11.77529801 3.90739199 13.15390569 4.15820312 14.53344727 C4.53227386 16.58976207 4.92245511 18.64243339 5.31616211 20.69506836 C7.76373188 33.6264831 9.70572022 46.59581202 10.22827148 59.76147461 C10.29075073 61.32792725 10.29075073 61.32792725 10.35449219 62.92602539 C10.58979011 70.91185804 10.28465454 78.79828081 9.66577148 86.76147461 C9.58359375 87.83123535 9.50141602 88.90099609 9.41674805 90.00317383 C8.74164932 97.49140785 8.74164932 97.49140785 6.47827148 100.88647461 C5.5134082 100.0859668 5.5134082 100.0859668 4.52905273 99.26928711 C-1.06186644 94.65937087 -6.71762428 90.15899735 -12.47387695 85.7578125 C-18.27886268 81.31725377 -24.01977627 76.79695353 -29.76000977 72.27319336 C-31.5016264 70.90229778 -33.24560736 69.5344747 -34.99047852 68.16772461 C-40.34188707 63.97425405 -45.68001504 59.76686952 -50.97729492 55.50512695 C-57.65308865 50.1353523 -64.40851357 44.88449394 -71.22460938 39.6940918 C-75.9708951 36.07797815 -80.69804422 32.4392714 -85.39672852 28.76147461 C-85.97366455 28.31215576 -86.55060059 27.86283691 -87.14501953 27.39990234 C-89.75079453 25.35371468 -92.25676816 23.3098238 -94.52172852 20.88647461 C-93.36672852 20.51522461 -92.21172852 20.14397461 -91.02172852 19.76147461 C-87.29017946 18.52152414 -83.60645754 17.1792601 -79.93041992 15.78344727 C-76.46672778 14.468658 -72.99464659 13.17665529 -69.52172852 11.88647461 C-68.38219727 11.46108398 -67.24266602 11.03569336 -66.06860352 10.59741211 C-11.77473952 -8.6161699 -11.77473952 -8.6161699 0 0 Z " fill="#4FA0F0" transform="translate(769.521728515625,269.113525390625)"/>
<path d="M0 0 C33.14484 8.39510882 63.3960881 27.2723083 81.52978516 56.88623047 C87.97380668 67.75266995 92.76760616 78.87033569 96.08203125 91.078125 C101.69043524 88.07125401 106.54839792 84.53755481 111.51953125 80.578125 C113.12019458 79.31786754 114.72177445 78.0587734 116.32421875 76.80078125 C117.12311523 76.17316895 117.92201172 75.54555664 118.74511719 74.89892578 C122.1772625 72.22477829 125.65564245 69.61506952 129.14453125 67.015625 C134.59371153 62.95267519 140.00552899 58.84553872 145.39453125 54.703125 C153.79434824 48.25828735 162.2963191 41.95937703 170.85009766 35.72070312 C172.9891036 34.14651455 175.10602259 32.54671023 177.21875 30.9375 C178.46471725 30.00503928 179.7108032 29.07273713 180.95703125 28.140625 C181.78593872 27.49347534 181.78593872 27.49347534 182.6315918 26.83325195 C185.21031246 24.92923161 186.60177484 24.04971547 189.85546875 24.2421875 C193.11657771 25.46653367 194.4618093 26.91520885 196.08203125 29.953125 C196.08203125 32.078125 196.08203125 32.078125 193.99609375 34.37109375 C190.9142772 37.23396087 187.74994044 39.90199442 184.45703125 42.515625 C183.81459473 43.02786621 183.1721582 43.54010742 182.51025391 44.06787109 C176.44490589 48.86389539 170.22719742 53.44482134 163.98730469 58.01000977 C158.47674274 62.04178941 153.03899069 66.14697043 147.640625 70.328125 C143.03567379 73.89429431 138.40184595 77.42262144 133.76953125 80.953125 C132.86904053 81.63995361 131.9685498 82.32678223 131.04077148 83.03442383 C126.15299597 86.75741535 121.24984763 90.4573066 116.3137207 94.1159668 C114.34175428 95.58675747 112.38910801 97.08048632 110.4375 98.578125 C108.42731619 100.1129085 106.51095925 101.41414473 104.3203125 102.703125 C101.70914177 104.38010725 100.4937809 105.29117585 99.08203125 108.078125 C98.57079213 112.16228293 98.66970368 116.22578473 98.93554688 120.32641602 C99.33858763 126.5704379 99.33858763 126.5704379 97.7890625 129.63671875 C96.08203125 131.078125 96.08203125 131.078125 93.08203125 131.453125 C90.08203125 131.078125 90.08203125 131.078125 87.08203125 129.078125 C86.15412379 125.84318086 85.92607998 122.64744659 85.7578125 119.296875 C84.22758987 94.04263316 77.48979122 68.48588497 59.08203125 50.078125 C58.1401915 48.95675568 57.2031489 47.83134897 56.26953125 46.703125 C53.78124783 43.76242641 51.10045348 41.47510736 48.08203125 39.078125 C48.08203125 38.418125 48.08203125 37.758125 48.08203125 37.078125 C47.53804687 36.83320312 46.9940625 36.58828125 46.43359375 36.3359375 C43.55457307 34.7959962 41.08003339 32.89834881 38.45703125 30.953125 C26.87840007 22.70066382 13.64201668 17.98853687 0.08203125 14.078125 C-2.60364449 13.27649834 -4.47403823 12.52226576 -6.91796875 11.078125 C-8.16796875 8.203125 -8.16796875 8.203125 -7.91796875 5.078125 C-4.05993925 0.10869985 -4.05993925 0.10869985 0 0 Z " fill="#4986E7" transform="translate(177.91796875,684.921875)"/>
<path d="M0 0 C2.37896333 0.83145565 4.05536649 1.91420905 6.09033203 3.39892578 C7.2139917 4.213573 7.2139917 4.213573 8.36035156 5.04467773 C9.14522949 5.62435303 9.93010742 6.20402832 10.73876953 6.80126953 C11.54040527 7.38674561 12.34204102 7.97222168 13.16796875 8.57543945 C18.94086014 12.81375739 24.60651613 17.15861658 30.11376953 21.73876953 C19.50017667 45.81694695 4.07112166 64.59801872 -20.88623047 74.73876953 C-26.466777 76.69158015 -32.11723492 78.44171349 -37.88623047 79.73876953 C-38.54623047 79.40876953 -39.20623047 79.07876953 -39.88623047 78.73876953 C-40.37978918 52.63211136 -31.42916043 28.17654711 -13.39111328 9.25439453 C-3.69430052 -0.51163624 -3.69430052 -0.51163624 0 0 Z " fill="#488BEA" transform="translate(478.88623046875,637.26123046875)"/>
<path d="M0 0 C2.61557752 1.59182271 4.87749381 3.49756787 7.1875 5.5 C8.5157002 6.60694252 9.84514041 7.71239878 11.17578125 8.81640625 C11.82627441 9.36184082 12.47676758 9.90727539 13.14697266 10.46923828 C15.66038257 12.54553343 18.25556472 14.49731138 20.875 16.4375 C25.65106404 19.98762247 30.39750705 23.57311676 35.125 27.1875 C35.84429687 27.73728516 36.56359375 28.28707031 37.3046875 28.85351562 C41.77195078 32.27499731 46.21490056 35.72601186 50.64624023 39.19384766 C60.10427245 46.59326338 69.71913874 53.75672806 79.42797852 60.82348633 C81 62 81 62 82 63 C81.55105995 69.95857074 79.98237956 76.32972915 78 83 C74.8233796 81.58502432 72.59409501 79.87124446 70.0625 77.5 C64.85920893 72.78132918 59.31836485 68.57013155 53.73242188 64.32519531 C50.82106121 62.09818493 47.94173834 59.83079568 45.0625 57.5625 C44.48226074 57.10584961 43.90202148 56.64919922 43.30419922 56.17871094 C40.94523754 54.32155881 38.5873978 52.46298481 36.22949219 50.60449219 C29.48152266 45.28734558 22.71622045 39.99634916 15.89648438 34.77148438 C11.88401913 31.69282922 7.90716279 28.57107163 3.9375 25.4375 C-6.90008008 16.75666754 -6.90008008 16.75666754 -18.34375 8.93359375 C-19.2203125 8.29550781 -20.096875 7.65742187 -21 7 C-21 6.01 -21 5.02 -21 4 C-18.81877494 3.12569481 -16.63250158 2.27591499 -14.4375 1.4375 C-13.21933594 0.96183594 -12.00117188 0.48617187 -10.74609375 -0.00390625 C-6.50425612 -1.13181928 -4.21479642 -1.20490256 0 0 Z " fill="#498CEA" transform="translate(472,586)"/>
<path d="M0 0 C6.08510102 5.21044585 9.06347945 10.8898468 10.22265625 18.8203125 C10.62221099 26.26534907 8.15654995 34.00451837 3.71484375 40.00390625 C-2.47263094 45.77888262 -9.60571659 49.09326083 -18.09765625 49.62890625 C-26.31915148 49.23680417 -32.92462922 45.88518569 -38.6640625 40.03125 C-42.97301318 34.59039585 -45.19957583 28.31573641 -45.0078125 21.37890625 C-43.73677283 10.92006557 -40.07461014 4.67873717 -32.01171875 -1.96484375 C-22.34806735 -9.06466927 -9.11768718 -6.84238731 0 0 Z M-31.53515625 11.19140625 C-34.68923396 16.11176747 -34.58414474 20.95910399 -34.09765625 26.62890625 C-32.1092207 32.28024939 -28.95724949 35.12385717 -23.72265625 37.87890625 C-17.82735051 39.56327932 -13.23253688 38.87041786 -7.9609375 35.953125 C-3.61406738 32.86383995 -1.07607452 28.93366837 -0.09765625 23.69140625 C0.29056459 17.79958411 -1.77308718 13.32141117 -5.34765625 8.75390625 C-13.98878366 2.07667143 -24.26799094 3.5515658 -31.53515625 11.19140625 Z " fill="#4677E0" transform="translate(788.09765625,553.37109375)"/>
<path d="M0 0 C3.31652301 2.41829803 3.5480587 2.93887923 4.375 6.75 C5.13287579 11.89597664 5.19877119 16.9973634 5 22.1875 C6.093125 22.001875 7.18625 21.81625 8.3125 21.625 C14.70860792 20.86111545 21.50300285 20.30087993 26.8125 24.3125 C28 27.1875 28 27.1875 27.5 30.875 C26 34.1875 26 34.1875 24.453125 35.38671875 C20.73349166 36.60093027 17.13352671 36.39622446 13.25 36.3125 C12.45722656 36.30347656 11.66445313 36.29445312 10.84765625 36.28515625 C8.89830719 36.26167012 6.94911425 36.22580137 5 36.1875 C5.02320313 37.11691406 5.04640625 38.04632813 5.0703125 39.00390625 C5.25938313 51.95524433 5.25938313 51.95524433 3 57.1875 C0 59.1875 0 59.1875 -3.5 59.0625 C-7 58.1875 -7 58.1875 -8.70703125 56.7109375 C-10.68131469 52.85780427 -10.31725524 49.19613351 -10.1875 44.9375 C-10.16719727 43.67679688 -10.16719727 43.67679688 -10.14648438 42.390625 C-10.11123464 40.32264062 -10.0574302 38.25498729 -10 36.1875 C-11.01320313 36.21070313 -12.02640625 36.23390625 -13.0703125 36.2578125 C-14.42186758 36.2765841 -15.77343069 36.2947828 -17.125 36.3125 C-17.79015625 36.32925781 -18.4553125 36.34601563 -19.140625 36.36328125 C-23.49055982 36.40592767 -26.99243796 35.89297377 -31 34.1875 C-32.88644674 31.80893671 -33.0337486 30.64873084 -32.8125 27.625 C-31.91016752 24.91800257 -31.20908349 23.94980256 -29 22.1875 C-26.7734375 21.7109375 -26.7734375 21.7109375 -24.375 21.5625 C-21.38851817 21.57872227 -21.38851817 21.57872227 -19 20.1875 C-16.6670386 20.14583998 -14.3329614 20.14583998 -12 20.1875 C-11.67 20.1875 -11.34 20.1875 -11 20.1875 C-10.98582031 19.16269531 -10.97164063 18.13789063 -10.95703125 17.08203125 C-10.91010984 15.72131029 -10.86186256 14.36063459 -10.8125 13 C-10.80669922 12.32646484 -10.80089844 11.65292969 -10.79492188 10.95898438 C-10.62253422 7.03237659 -10.10990476 5.32005824 -7.57421875 2.26171875 C-3.56802232 -0.96633938 -3.56802232 -0.96633938 0 0 Z " fill="#467DDF" transform="translate(483,163.8125)"/>
<path d="M0 0 C6.41012686 4.2734179 11.8285801 10.54075649 13.40625 18.21875 C14.46869395 26.04220094 13.84773356 32.65583406 9.1875 39.1875 C4.15763608 45.31346017 -1.45780088 50.24010193 -9.63671875 51.2578125 C-18.76701511 51.63983327 -25.83723171 48.80448022 -32.55859375 42.64453125 C-37.14050622 37.44376307 -38.78150345 31.52020598 -39.3125 24.75 C-38.67193235 14.98134332 -35.38747024 8.4767007 -28.0625 1.9375 C-20.63784791 -4.12978177 -8.34065616 -4.26928502 0 0 Z M-23.87890625 12.4140625 C-27.18789656 15.90644263 -28.98223128 19.04159007 -29.2265625 23.890625 C-28.79711785 29.24845828 -27.11952843 33.36128458 -23 36.875 C-17.75677401 40.55641399 -13.38070257 40.58895309 -7.0625 39.9375 C-1.91396319 37.3632316 1.119508 34.39147599 2.9375 28.9375 C3.46837424 23.88114048 3.52718185 20.05586213 1.125 15.5 C0.403125 14.654375 -0.31875 13.80875 -1.0625 12.9375 C-1.51625 12.36 -1.97 11.7825 -2.4375 11.1875 C-9.0766381 6.08047069 -17.68710631 7.38072836 -23.87890625 12.4140625 Z " fill="#4F93E8" transform="translate(136.0625,661.0625)"/>
<path d="M0 0 C3.5 0.25 3.5 0.25 5.5 2.25 C5.6953125 5.5078125 5.6953125 5.5078125 5.625 9.375 C5.60695313 10.65632813 5.58890625 11.93765625 5.5703125 13.2578125 C5.54710937 14.24523437 5.52390625 15.23265625 5.5 16.25 C6.45261719 16.19199219 7.40523438 16.13398438 8.38671875 16.07421875 C18.50923514 15.71009946 18.50923514 15.71009946 21.54296875 17.36328125 C22.875 18.75 22.875 18.75 24.5 21.25 C23.84 23.23 23.18 25.21 22.5 27.25 C17.13904667 28.37862175 11.94693314 28.34688221 6.5 28.25 C6.46261719 29.15363281 6.42523438 30.05726563 6.38671875 30.98828125 C6.32097656 32.16777344 6.25523437 33.34726562 6.1875 34.5625 C6.12949219 35.73425781 6.07148438 36.90601563 6.01171875 38.11328125 C5.5 41.25 5.5 41.25 4.1484375 43.17578125 C2.5 44.25 2.5 44.25 -0.5625 44.125 C-3.5 43.25 -3.5 43.25 -5.5 40.25 C-5.6953125 37.33203125 -5.6953125 37.33203125 -5.625 34.0625 C-5.60695313 32.97582031 -5.58890625 31.88914062 -5.5703125 30.76953125 C-5.54710937 29.93808594 -5.52390625 29.10664063 -5.5 28.25 C-6.71236328 28.28480469 -6.71236328 28.28480469 -7.94921875 28.3203125 C-9.01785156 28.33835937 -10.08648437 28.35640625 -11.1875 28.375 C-12.24324219 28.39820313 -13.29898437 28.42140625 -14.38671875 28.4453125 C-17.56128385 28.24615534 -19.69460059 27.72865817 -22.5 26.25 C-23.62562504 23.39841657 -23.71942548 21.90827645 -22.75 19 C-21.5 17.25 -21.5 17.25 -18.5 16.25 C-16.27181559 16.18062938 -14.04165476 16.16542916 -11.8125 16.1875 C-10.04326172 16.20103516 -10.04326172 16.20103516 -8.23828125 16.21484375 C-7.33464844 16.22644531 -6.43101562 16.23804688 -5.5 16.25 C-5.52320313 15.26257813 -5.54640625 14.27515625 -5.5703125 13.2578125 C-5.58835937 11.97648437 -5.60640625 10.69515625 -5.625 9.375 C-5.64820313 8.09882813 -5.67140625 6.82265625 -5.6953125 5.5078125 C-5.41740359 0.87229196 -4.6044163 0.32888688 0 0 Z " fill="#467ADE" transform="translate(420.5,369.75)"/>
<path d="M0 0 C2.875 2.5 2.875 2.5 5 5 C5.33 5.33 5.66 5.66 6 6 C6.40256562 10.75027435 6.46650379 13.10031412 4.25 17.375 C1.24700894 20.87848957 -0.3454492 21.78418903 -4.875 22.375 C-9.84165279 21.77900167 -12.77234225 19.46526893 -15.9375 15.6875 C-17.39451192 12.00211692 -17.01901554 9.8043247 -16 6 C-14.16137708 3.04507031 -12.67251431 1.39987337 -9.6875 -0.375 C-6.04992671 -1.22094728 -3.60960985 -0.96685978 0 0 Z " fill="#4B91EB" transform="translate(555,286)"/>
<path d="M0 0 C0.33 0 0.66 0 1 0 C1.88883131 15.06569069 -12.9052028 30.1101272 -21.73095703 41.37207031 C-23.78075578 44.00155436 -25.79223771 46.6602918 -27.8125 49.3125 C-32.21919333 55.06722684 -36.78024231 60.69080923 -41.36523438 66.30395508 C-45.31812098 71.1460039 -49.20534998 76.03245815 -53 81 C-53.99 80.67 -54.98 80.34 -56 80 C-46.28223464 67.22862852 -46.28223464 67.22862852 -43.0625 63.5625 C-40.0396426 60.10532401 -37.17165162 56.53017318 -34.3125 52.9375 C-33.83627197 52.34718994 -33.36004395 51.75687988 -32.86938477 51.14868164 C-30.05771373 47.59346104 -27.99273062 44.09317641 -26 40 C-24.69481525 38.96352976 -23.36538653 37.95577057 -22 37 C-21.67 36.01 -21.34 35.02 -21 34 C-19.33333333 32.33333333 -17.66666667 30.66666667 -16 29 C-9.37407088 19.93910046 -4.46757356 10.25674444 0 0 Z " fill="#4872D9" transform="translate(653,653)"/>
<path d="M0 0 C0.33 0 0.66 0 1 0 C1.125 5.75 1.125 5.75 0 8 C-0.66 8 -1.32 8 -2 8 C-2.2475 9.03125 -2.495 10.0625 -2.75 11.125 C-3.84864519 14.95873393 -5.67405622 17.74367871 -8 21 C-9.29810108 23.11282518 -10.57873562 25.23514713 -11.8515625 27.36328125 C-13 29 -13 29 -15 30 C-14.73987695 33.54262816 -14.2649453 34.75663005 -11.6015625 37.203125 C-10.61929688 37.87859375 -9.63703125 38.5540625 -8.625 39.25 C-7.64789062 39.93578125 -6.67078125 40.6215625 -5.6640625 41.328125 C-3.05088384 43.11438969 -3.05088384 43.11438969 0 44 C0 44.66 0 45.32 0 46 C0.5775 46.2475 1.155 46.495 1.75 46.75 C4.3002997 48.16683317 6.01785701 49.87627537 8 52 C3.19076684 51.51184475 0.015245 49.18787765 -3.75 46.375 C-4.36182129 45.92785645 -4.97364258 45.48071289 -5.60400391 45.02001953 C-10.47575986 41.44210358 -15.27755684 37.77295723 -20 34 C-18.46181889 29.51293024 -15.99678914 25.86213541 -13.3125 22 C-9.2078749 15.98962946 -5.61860548 9.87645577 -2.27734375 3.4140625 C-1 1 -1 1 0 0 Z " fill="#4976DA" transform="translate(586,679)"/>
<path d="M0 0 C0.66 0 1.32 0 2 0 C1.49210029 4.11420947 0.50518246 5.96995938 -2.52734375 8.76953125 C-3.23697266 9.43017578 -3.94660156 10.09082031 -4.67773438 10.77148438 C-5.42345703 11.44501953 -6.16917969 12.11855469 -6.9375 12.8125 C-7.67935547 13.50537109 -8.42121094 14.19824219 -9.18554688 14.91210938 C-14.71455511 20 -14.71455511 20 -17 20 C-17 20.66 -17 21.32 -17 22 C-18.65483608 23.49877503 -20.37590512 24.92488473 -22.125 26.3125 C-23.1253125 27.11945312 -24.125625 27.92640625 -25.15625 28.7578125 C-26.76368108 30.02521008 -28.38156344 31.28030238 -30.03125 32.4921875 C-32.58012723 34.40384542 -33.87926168 35.5031435 -34.64453125 38.65234375 C-35.04312473 42.40613071 -35.10997332 46.10634846 -35.0625 49.875 C-35.05573242 50.90753906 -35.05573242 50.90753906 -35.04882812 51.9609375 C-35.03716336 53.64066335 -35.01923271 55.32034375 -35 57 C-39.06337911 50.90493134 -38.47558592 42.06023419 -37.8046875 34.921875 C-36.61600291 32.08288073 -34.66387668 31.44923973 -32 30 C-30.31176626 28.71535964 -28.64520699 27.40180131 -27 26.0625 C-26.175 25.39347656 -25.35 24.72445312 -24.5 24.03515625 C-23.675 23.36355469 -22.85 22.69195313 -22 22 C-21.175 21.35933594 -20.35 20.71867188 -19.5 20.05859375 C-16.82100648 17.85261002 -14.44198182 15.46445405 -12 13 C-9.12549573 10.41608769 -6.23019502 7.85757797 -3.328125 5.3046875 C-0.79809835 3.14718295 -0.79809835 3.14718295 0 0 Z " fill="#4879E0" transform="translate(686,543)"/>
<path d="M0 0 C3 2 3 2 3.9375 4.8125 C4 8 4 8 2.3125 10.8125 C-1.05714286 14 -1.05714286 14 -4 14 C-7.14986319 12.65005863 -8.65655696 11.56742762 -10.4375 8.625 C-11.14781763 5.31018441 -10.72256416 3.89703973 -9 1 C-5.85632766 -1.38485488 -3.68155563 -1.13278635 0 0 Z " fill="#4A82E2" transform="translate(817,447)"/>
<path d="M0 0 C1.8125 1.125 1.8125 1.125 3 3 C3.36528977 6.4093712 3.6140629 8.88023824 1.9375 11.9375 C-1.1652833 13.63902633 -3.53769185 13.42519574 -7 13 C-9.5 11.4375 -9.5 11.4375 -11 9 C-11.0625 5.4375 -11.0625 5.4375 -10 2 C-6.60539102 -1.0174302 -4.26129477 -1.5699507 0 0 Z " fill="#467DE0" transform="translate(874,447)"/>
<path d="M0 0 C2 3 2 3 1.8125 6 C0.62953368 10.36787565 0.62953368 10.36787565 -2 12 C-5.61581862 12.53852618 -7.34111489 12.42236225 -10.4375 10.4375 C-12 8 -12 8 -12.0625 4.4375 C-11 1 -11 1 -8.8125 -1.0625 C-5.12079408 -2.29306864 -3.45300514 -1.68813585 0 0 Z " fill="#477FE1" transform="translate(848,448)"/>
<path d="M0 0 C2.38460953 2.07691798 2.8959746 3.40556916 3.4375 6.5 C3 9 3 9 1.4375 11.375 C-1 13 -1 13 -4.5625 13.0625 C-8 12 -8 12 -10 9.75 C-11.15169724 6.5828326 -11.18679817 5.13653803 -10 2 C-6.29584707 -0.46943529 -4.37855495 -0.46913089 0 0 Z " fill="#4A80DF" transform="translate(874,473)"/>
<path d="M0 0 C3.5 0.375 3.5 0.375 6.5 2.375 C7.4375 5.1875 7.4375 5.1875 7.5 8.375 C5.9375 11.25 5.9375 11.25 3.5 13.375 C0.29146522 13.89884241 -1.52330727 13.98122307 -4.3125 12.25 C-5.9995896 9.58617432 -6.37177883 7.51641856 -6.5 4.375 C-4.94632632 0.68502502 -4.00952896 0.42959239 0 0 Z " fill="#4980E2" transform="translate(842.5,472.625)"/>
<path d="M0 0 C2.31979354 2.69395379 3.04079072 4.12299946 2.875 7.6875 C2 10 2 10 -1 12 C-4.6380818 12.46443597 -6.35734354 12.42843764 -9.4375 10.375 C-11 8 -11 8 -11 4.9375 C-10 2 -10 2 -8.3125 0.0625 C-5.07205253 -1.42635424 -3.35094158 -1.14074607 0 0 Z " fill="#3E6ED7" transform="translate(525,835)"/>
<path d="M0 0 C4.49413357 1.5631769 4.49413357 1.5631769 5.875 4 C5.75 7.5625 5.75 7.5625 4.875 11 C1.40576119 13.31282587 -0.04705575 13.42478586 -4.125 13 C-6.46608221 11.46618752 -7.04046902 10.20076108 -8.125 7.625 C-8.125 5 -8.125 5 -6.0625 2.125 C-3.125 0 -3.125 0 0 0 Z " fill="#4573D6" transform="translate(496.125,853)"/>
<path d="M0 0 C2.4375 1.375 2.4375 1.375 3.875 3.6875 C4.58734971 7.0909486 4.32988974 8.45756581 2.4375 11.375 C-0.375 12.9375 -0.375 12.9375 -3.5625 13.375 C-6.4375 11.875 -6.4375 11.875 -8.5625 9.375 C-9.0625 6.3125 -9.0625 6.3125 -8.5625 3.375 C-6.2695176 0.2085005 -3.90653781 -0.9528141 0 0 Z " fill="#5092E8" transform="translate(254.5625,585.625)"/>
<path d="M0 0 C3 1.4375 3 1.4375 4.5 4.3125 C5 7.4375 5 7.4375 4.5625 9.75 C3 11.4375 3 11.4375 -0.375 12.375 C-4 12.4375 -4 12.4375 -6.4375 11.375 C-8 9.4375 -8 9.4375 -8.4375 6.4375 C-8 3.4375 -8 3.4375 -6.625 1.625 C-3.95558782 -0.32572428 -3.39584214 -0.6367204 0 0 Z " fill="#4B8DE5" transform="translate(276,562.5625)"/>
<path d="M0 0 C-2.38573379 1.89213369 -4.07175348 3.02391783 -7 4 C-7.99 3.67 -8.98 3.34 -10 3 C-11.51907624 2.91330471 -13.04169001 2.882306 -14.56323242 2.88647461 C-15.48396042 2.88655014 -16.40468842 2.88662567 -17.35331726 2.88670349 C-18.34402725 2.89186478 -19.33473724 2.89702606 -20.35546875 2.90234375 C-21.37224197 2.9037587 -22.3890152 2.90517365 -23.43659973 2.90663147 C-26.68692964 2.91223293 -29.93719088 2.92478568 -33.1875 2.9375 C-35.38997296 2.94251481 -37.59244701 2.94707775 -39.79492188 2.95117188 C-45.19663804 2.96220283 -50.59831412 2.97894238 -56 3 C-56 2.67 -56 2.34 -56 2 C-46.41125873 -0.03890216 -36.94939059 -0.42959724 -27.18896484 -0.63305664 C-24.60866084 -0.68784695 -22.0290934 -0.75804869 -19.44921875 -0.83007812 C-17.79168857 -0.87069573 -16.13413673 -0.91044067 -14.4765625 -0.94921875 C-13.33267563 -0.98036018 -13.33267563 -0.98036018 -12.16567993 -1.01213074 C-7.98449038 -1.09117029 -4.0991397 -0.83497993 0 0 Z " fill="#69AFEE" transform="translate(514,470)"/>
<path d="M0 0 C0.33 0.99 0.66 1.98 1 3 C1.66 3 2.32 3 3 3 C4.97131118 15.2502909 6.36982742 27.69585605 4 40 C3.34 40 2.68 40 2 40 C1.67 40.66 1.34 41.32 1 42 C1.00523682 41.2251123 1.01047363 40.45022461 1.01586914 39.65185547 C1.2406921 19.79899502 1.2406921 19.79899502 0 0 Z " fill="#4774DD" transform="translate(653,610)"/>
<path d="M0 0 C5.96412019 2.26826911 10.86220344 5.36136709 16 9.125 C16.78761719 9.65609375 17.57523438 10.1871875 18.38671875 10.734375 C23.79105028 14.71452842 23.79105028 14.71452842 24.37890625 18.33105469 C24.03530739 22.65934853 23.34131616 25.10838838 20 28 C20.08121094 27.27554688 20.16242187 26.55109375 20.24609375 25.8046875 C20.72033254 20.294173 20.72033254 20.294173 18.8984375 15.25 C17.02609047 13.62668434 15.09369913 12.33051203 13 11 C11.27934497 9.83651941 9.56773737 8.66064194 7.8581543 7.48095703 C6.66933558 6.66599796 5.47288152 5.8620572 4.26879883 5.06982422 C2.81154358 4.09604986 1.40086585 3.05328259 0 2 C0 1.34 0 0.68 0 0 Z " fill="#4A81E4" transform="translate(530,633)"/>
<path d="M0 0 C0.66 0.99 1.32 1.98 2 3 C-0.28356246 5.34138543 -2.57813374 7.67166982 -4.875 10 C-5.52597656 10.66773438 -6.17695313 11.33546875 -6.84765625 12.0234375 C-7.47285156 12.65507813 -8.09804688 13.28671875 -8.7421875 13.9375 C-9.3182373 14.52402344 -9.89428711 15.11054687 -10.48779297 15.71484375 C-12 17 -12 17 -14 17 C-14.103125 17.639375 -14.20625 18.27875 -14.3125 18.9375 C-14.539375 19.618125 -14.76625 20.29875 -15 21 C-15.99 21.33 -16.98 21.66 -18 22 C-16.48937651 17.2737803 -13.878312 14.11985807 -10.6875 10.4375 C-9.9769043 9.59155273 -9.9769043 9.59155273 -9.25195312 8.72851562 C-6.41780357 5.41360746 -3.51615838 2.61950597 0 0 Z " fill="#549EEC" transform="translate(442,628)"/>
<path d="M0 0 C0.33 0 0.66 0 1 0 C1 1.65 1 3.3 1 5 C1.66 5 2.32 5 3 5 C4.74355735 16.32465889 5.53195557 27.55754546 6 39 C5.34 39 4.68 39 4 39 C3.67 34.38 3.34 29.76 3 25 C2.67 25 2.34 25 2 25 C1.66068773 22.33397504 1.32842824 19.66736986 1 17 C0.90460937 16.25621094 0.80921875 15.51242187 0.7109375 14.74609375 C0.10772324 9.79111949 -0.09075591 4.99157504 0 0 Z " fill="#5AA4EE" transform="translate(774,297)"/>
<path d="M0 0 C0.99 0.495 0.99 0.495 2 1 C3.76537548 10.35649004 3.80634024 19.87939422 1 29 C0.67 29 0.34 29 0 29 C0 19.43 0 9.86 0 0 Z " fill="#4575DE" transform="translate(587,649)"/>
<path d="M0 0 C0.99 0.33 1.98 0.66 3 1 C3.8125 2.75 3.8125 2.75 4 5 C3.34 6.65 2.68 8.3 2 10 C-5.26 10 -12.52 10 -20 10 C-20 9.67 -20 9.34 -20 9 C-11.585 8.505 -11.585 8.505 -3 8 C-2.67 6.68 -2.34 5.36 -2 4 C-1.34 4 -0.68 4 0 4 C0 2.68 0 1.36 0 0 Z " fill="#3E75DA" transform="translate(507,188)"/>
<path d="M0 0 C0.66 0.33 1.32 0.66 2 1 C-3.41942548 8.27243747 -10.91607782 14.3850805 -20 16 C-16.07795039 11.83425022 -11.83123826 8.51588273 -7.1875 5.1875 C-6.49462891 4.68541016 -5.80175781 4.18332031 -5.08789062 3.66601562 C-3.39482309 2.4400012 -1.69781244 1.2194351 0 0 Z " fill="#57A9F2" transform="translate(642,309)"/>
<path d="M0 0 C1.31468352 2.52823753 2.42336465 5.04077143 3.5 7.6875 C4.61166533 11.068459 4.61166533 11.068459 7 12 C8.70702735 12.06996014 10.41668003 12.08440154 12.125 12.0625 C13.03507813 12.05347656 13.94515625 12.04445313 14.8828125 12.03515625 C15.58148437 12.02355469 16.28015625 12.01195312 17 12 C16 15 16 15 14 16 C10.14980098 16.43752262 8.2736362 16.14486622 4.8125 14.3125 C1.92427369 11.93773614 0.3712909 10.46855933 -1 7 C-0.6875 3.1875 -0.6875 3.1875 0 0 Z " fill="#5295E9" transform="translate(539,292)"/>
<path d="M0 0 C0.33 0 0.66 0 1 0 C1 10.23 1 20.46 1 31 C4.96 31 8.92 31 13 31 C9.3750203 32.81248985 7.62740416 33.31888915 3.75 33.625 C2.85796875 33.69976563 1.9659375 33.77453125 1.046875 33.8515625 C0.37140625 33.90054688 -0.3040625 33.94953125 -1 34 C-1.02926019 29.83334831 -1.04688594 25.66672341 -1.0625 21.5 C-1.07087891 20.32695313 -1.07925781 19.15390625 -1.08789062 17.9453125 C-1.10497844 11.86205118 -0.94502752 6.01245856 0 0 Z " fill="#3577E5" transform="translate(425,702)"/>
<path d="M0 0 C0.66 0.33 1.32 0.66 2 1 C1.25 3.4375 1.25 3.4375 0 6 C-1.33333333 6.33333333 -2.66666667 6.66666667 -4 7 C-4.268125 7.70125 -4.53625 8.4025 -4.8125 9.125 C-6.53139642 13.28653871 -9.47253232 16.23160764 -13 19 C-15.2265625 19.703125 -15.2265625 19.703125 -17 20 C-15.69311157 17.10455263 -14.31032308 15.07656883 -12.03125 12.87109375 C-11.46019531 12.31099609 -10.88914062 11.75089844 -10.30078125 11.17382812 C-9.70652344 10.60083984 -9.11226562 10.02785156 -8.5 9.4375 C-7.32065437 8.29269053 -6.14348348 7.14563543 -4.96875 5.99609375 C-4.44732422 5.49263428 -3.92589844 4.9891748 -3.38867188 4.47045898 C-1.7743892 2.84358092 -1.7743892 2.84358092 0 0 Z " fill="#5BAAF1" transform="translate(598,344)"/>
<path d="M0 0 C0.33 0 0.66 0 1 0 C1.33 5.94 1.66 11.88 2 18 C-4.93 18 -11.86 18 -19 18 C-15.16775421 16.0838771 -14.00839226 15.89166507 -10 16 C-9.67 15.67 -9.34 15.34 -9 15 C-6.6670386 14.95833998 -4.3329614 14.95833998 -2 15 C-1.67 15 -1.34 15 -1 15 C-0.67 10.05 -0.34 5.1 0 0 Z " fill="#6995DE" transform="translate(473,169)"/>
<path d="M0 0 C2.52772812 1.16664375 4.64512706 2.45296155 6.9375 4.0625 C9.80999537 5.87979299 11.67298419 6.60858637 15 7 C15 9.31 15 11.62 15 14 C11.62985544 12.50728757 9.12782162 10.56479174 6.375 8.125 C5.59898437 7.44695313 4.82296875 6.76890625 4.0234375 6.0703125 C2.10475403 4.10718076 1.04805247 2.51307205 0 0 Z " fill="#4B80E3" transform="translate(535,655)"/>
<path d="M0 0 C-6.26787602 4.26215569 -16.18429561 11 -24 11 C-24 10.34 -24 9.68 -24 9 C-21.62652346 7.81326173 -19.25252054 6.62784754 -16.875 5.44921875 C-14.9872047 4.49762628 -13.11146397 3.52165461 -11.25 2.51953125 C-9.950625 1.82923828 -9.950625 1.82923828 -8.625 1.125 C-7.83351563 0.69445312 -7.04203125 0.26390625 -6.2265625 -0.1796875 C-3.67095377 -1.12122756 -2.51580295 -0.93050246 0 0 Z " fill="#497EE0" transform="translate(474,746)"/>
<path d="M0 0 C-1.47060017 4.88114098 -2.74258621 9.00226489 -6 13 C-6.70514846 15.14733927 -6.70514846 15.14733927 -7 17 C-7.66 17 -8.32 17 -9 17 C-9 16.34 -9 15.68 -9 15 C-9.66 15 -10.32 15 -11 15 C-9.22054913 10.95579349 -6.60470327 7.53921513 -4 4 C-5.32 3.01 -6.64 2.02 -8 1 C-2.25 0 -2.25 0 0 0 Z " fill="#57A0EE" transform="translate(482,552)"/>
<path d="M0 0 C0.33 0.99 0.66 1.98 1 3 C-0.72159374 4.94470746 -2.45166256 6.88057309 -4.1875 8.8125 C-4.67025391 9.35970703 -5.15300781 9.90691406 -5.65039062 10.47070312 C-8.51496216 13.64287965 -11.15659006 15.99749208 -15 18 C-13.57544351 14.29615312 -11.19560275 12.09716929 -8.33984375 9.46484375 C-6.74891301 7.92498332 -6.74891301 7.92498332 -6 5 C-4.12382302 3.15500602 -2.07262391 1.6316401 0 0 Z " fill="#4378E1" transform="translate(706,523)"/>
<path d="M0 0 C0.33 0.99 0.66 1.98 1 3 C-0.14453125 4.68359375 -0.14453125 4.68359375 -1.8125 6.4375 C-4.08379038 8.8490601 -5.59060814 11.00427964 -7 14 C-7.97581759 15.35113205 -8.97029741 16.68946944 -10 18 C-10.99 17.67 -11.98 17.34 -13 17 C-8.83031167 11.1851989 -4.68279275 5.41447912 0 0 Z " fill="#5AA9EF" transform="translate(420,497)"/>
<path d="M0 0 C0.33 0.99 0.66 1.98 1 3 C-0.29296875 5.33984375 -0.29296875 5.33984375 -2.1875 7.9375 C-2.79980469 8.79214844 -3.41210938 9.64679688 -4.04296875 10.52734375 C-5.89556198 12.86804538 -7.84392534 14.9395384 -10 17 C-10 12.24105868 -8.37788268 10.35415742 -5.5625 6.8125 C-5.14162109 6.26658203 -4.72074219 5.72066406 -4.28710938 5.15820312 C-1.295716 1.295716 -1.295716 1.295716 0 0 Z " fill="#59A9F2" transform="translate(571,375)"/>
<path d="M0 0 C0.33 0.99 0.66 1.98 1 3 C-0.07421875 4.83203125 -0.07421875 4.83203125 -1.6875 6.8125 C-3.68312956 9.31165647 -5.52607888 11.76774106 -7.1875 14.5 C-7.785625 15.325 -8.38375 16.15 -9 17 C-9.99 17 -10.98 17 -12 17 C-10.32844203 13.22757683 -7.92645254 10.07212347 -5.4375 6.8125 C-5.02564453 6.26658203 -4.61378906 5.72066406 -4.18945312 5.15820312 C-1.16952328 1.16952328 -1.16952328 1.16952328 0 0 Z " fill="#59A8EF" transform="translate(402,521)"/>
<path d="M0 0 C3.2189433 1.40312913 5.1117562 3.47095691 7.4375 6.0625 C5.7875 6.0625 4.1375 6.0625 2.4375 6.0625 C2.1075 5.4025 1.7775 4.7425 1.4375 4.0625 C0.88320313 4.23007812 0.32890625 4.39765625 -0.2421875 4.5703125 C-0.96664063 4.77398438 -1.69109375 4.97765625 -2.4375 5.1875 C-3.51644531 5.50074219 -3.51644531 5.50074219 -4.6171875 5.8203125 C-5.25914062 5.90023437 -5.90109375 5.98015625 -6.5625 6.0625 C-7.2225 5.4025 -7.8825 4.7425 -8.5625 4.0625 C-3.37624046 0.08234733 -3.37624046 0.08234733 0 0 Z " fill="#4F9BED" transform="translate(456.5625,618.9375)"/>
<path d="M0 0 C2.74967731 1.29055736 5.07873302 2.71084296 7.453125 4.6015625 C8.38125 5.33632813 8.38125 5.33632813 9.328125 6.0859375 C9.96234375 6.59382812 10.5965625 7.10171875 11.25 7.625 C11.8996875 8.140625 12.549375 8.65625 13.21875 9.1875 C14.81503967 10.45514179 16.40786526 11.72714361 18 13 C17.01 13.33 16.02 13.66 15 14 C12.66597724 12.51633457 10.5883901 11.0280064 8.4375 9.3125 C7.84775391 8.86455078 7.25800781 8.41660156 6.65039062 7.95507812 C3.63934808 5.60173771 1.30911934 3.65355529 0 0 Z " fill="#4583E6" transform="translate(509,594)"/>
<path d="M0 0 C0.71484375 1.609375 0.71484375 1.609375 1 4 C-0.43359375 7.015625 -0.43359375 7.015625 -2.4375 10.25 C-3.09621094 11.32765625 -3.75492188 12.4053125 -4.43359375 13.515625 C-4.95050781 14.33546875 -5.46742188 15.1553125 -6 16 C-6.66 15.67 -7.32 15.34 -8 15 C-6.51194289 9.19657726 -3.40902445 4.82409121 0 0 Z " fill="#57A6F0" transform="translate(538,423)"/>
<path d="M0 0 C0.99 0.33 1.98 0.66 3 1 C2.01 1.495 2.01 1.495 1 2 C1 3.32 1 4.64 1 6 C3.70183055 7.35091528 6.11808206 7.33858058 9.125 7.5625 C10.76855469 7.68818359 10.76855469 7.68818359 12.4453125 7.81640625 C13.28835938 7.87699219 14.13140625 7.93757813 15 8 C15 8.33 15 8.66 15 9 C12.37438891 9.08074203 9.75124324 9.1403623 7.125 9.1875 C6.00544922 9.22520508 6.00544922 9.22520508 4.86328125 9.26367188 C2.6953125 9.29296875 2.6953125 9.29296875 -1 9 C-3 6 -3 6 -2.75 3.375 C-2.5025 2.59125 -2.255 1.8075 -2 1 C-1.34 0.67 -0.68 0.34 0 0 Z " fill="#3F70D2" transform="translate(400,388)"/>
<path d="M0 0 C2.84357564 1.80093124 5.43631577 3.82253314 8 6 C6.234375 6.64453125 6.234375 6.64453125 4 7 C2.078125 6.07421875 2.078125 6.07421875 0.25 4.6875 C-0.36359375 4.23761719 -0.9771875 3.78773438 -1.609375 3.32421875 C-2.06828125 2.88722656 -2.5271875 2.45023438 -3 2 C-3 1.34 -3 0.68 -3 0 C-3.7425 0.350625 -4.485 0.70125 -5.25 1.0625 C-8.1322726 2.04509293 -9.21176345 2.0326802 -12 1 C-7.62789412 -1.25229697 -4.73531129 -1.28415221 0 0 Z " fill="#5EA3EE" transform="translate(472,586)"/>
<path d="M0 0 C0 0.66 0 1.32 0 2 C-0.99 2 -1.98 2 -3 2 C-3.185625 2.5775 -3.37125 3.155 -3.5625 3.75 C-5.76061982 7.19053538 -8.31736071 8.25559192 -12 10 C-12.99 9.67 -13.98 9.34 -15 9 C-13.58680023 7.87064804 -12.16928595 6.74669374 -10.75 5.625 C-9.96109375 4.99851562 -9.1721875 4.37203125 -8.359375 3.7265625 C-3.26696833 0 -3.26696833 0 0 0 Z " fill="#5CAAEF" transform="translate(446,477)"/>
<path d="M0 0 C0.99 0 1.98 0 3 0 C2.67 6.6 2.34 13.2 2 20 C-0.03120707 16.95318939 -0.24659875 16.39881676 -0.1953125 12.98828125 C-0.18886719 12.23095703 -0.18242187 11.47363281 -0.17578125 10.69335938 C-0.15902344 9.90767578 -0.14226562 9.12199219 -0.125 8.3125 C-0.11597656 7.51521484 -0.10695313 6.71792969 -0.09765625 5.89648438 C-0.07411585 3.930861 -0.03824547 1.96539225 0 0 Z " fill="#3A76DB" transform="translate(474,167)"/>
<path d="M0 0 C0.33 0 0.66 0 1 0 C1.125 5.75 1.125 5.75 0 8 C-0.66 8 -1.32 8 -2 8 C-2.99 11.465 -2.99 11.465 -4 15 C-4.33 15 -4.66 15 -5 15 C-5.56102731 9.38972689 -3.79491313 5.70308675 -1 1 C-0.67 0.67 -0.34 0.34 0 0 Z " fill="#4372DD" transform="translate(586,679)"/>
<path d="M0 0 C4.55700425 0.52484692 7.192874 2.31507303 10.8125 5.0625 C11.78832031 5.79597656 12.76414062 6.52945313 13.76953125 7.28515625 C14.87361328 8.13400391 14.87361328 8.13400391 16 9 C14.390625 9.7734375 14.390625 9.7734375 12 10 C9.73183591 8.6191229 7.80157974 7.27411673 5.75 5.625 C5.19570313 5.19960938 4.64140625 4.77421875 4.0703125 4.3359375 C2.68597402 3.25847208 1.33931527 2.13294279 0 1 C0 0.67 0 0.34 0 0 Z " fill="#5092E9" transform="translate(483,642)"/>
<path d="M0 0 C0.99 0.33 1.98 0.66 3 1 C1.50328459 5.49014624 -0.83368341 9.47848764 -4 13 C-4.66 13 -5.32 13 -6 13 C-4.58707905 8.1725201 -2.57025846 4.2837641 0 0 Z " fill="#529AEB" transform="translate(421,653)"/>
<path d="M0 0 C0.6484375 1.7734375 0.6484375 1.7734375 1 4 C0.0390625 5.8515625 0.0390625 5.8515625 -1.375 7.625 C-2.77668436 9.41821631 -3.9802463 10.9604926 -5 13 C-5.99 12.67 -6.98 12.34 -8 12 C-6.49087042 7.01987239 -3.44338151 3.75740058 0 0 Z " fill="#5BA8EE" transform="translate(382,547)"/>
<path d="M0 0 C3.00131187 1.39298555 5.51057409 3.03955068 8.125 5.0625 C10.93627263 7.23226195 10.93627263 7.23226195 14 9 C13.67 9.66 13.34 10.32 13 11 C7.79971748 9.31755566 3.45479808 6.44670586 0.625 1.6875 C0.41875 1.130625 0.2125 0.57375 0 0 Z " fill="#457AE3" transform="translate(554,629)"/>
<path d="M0 0 C0.66 0.66 1.32 1.32 2 2 C1.39671875 2.13277344 0.7934375 2.26554687 0.171875 2.40234375 C-0.62734375 2.57894531 -1.4265625 2.75554687 -2.25 2.9375 C-3.03890625 3.11152344 -3.8278125 3.28554688 -4.640625 3.46484375 C-6.97764188 3.95624621 -6.97764188 3.95624621 -9.109375 4.69140625 C-11 5 -11 5 -14 3 C-5.24191063 -0.62403698 -5.24191063 -0.62403698 0 0 Z " fill="#59A9F1" transform="translate(460,473)"/>
<path d="M0 0 C0.33 0 0.66 0 1 0 C2.02269184 6.61985666 2.35283359 12.615703 0 19 C-0.66 19.66 -1.32 20.32 -2 21 C-2.04254356 19.00045254 -2.04080783 16.99958364 -2 15 C-1.67 14.67 -1.34 14.34 -1 14 C-0.76472227 11.65012738 -0.58613583 9.29443961 -0.4375 6.9375 C-0.35371094 5.64714844 -0.26992187 4.35679687 -0.18359375 3.02734375 C-0.12300781 2.02832031 -0.06242188 1.02929688 0 0 Z " fill="#619CE6" transform="translate(148,677)"/>
<path d="M0 0 C0.66796875 1.7734375 0.66796875 1.7734375 1 4 C-0.07421875 5.8515625 -0.07421875 5.8515625 -1.6875 7.625 C-2.20699219 8.21539063 -2.72648437 8.80578125 -3.26171875 9.4140625 C-5.0703504 11.06418486 -6.76855046 12.01796774 -9 13 C-7.50923566 9.7173068 -5.61379679 7.06922559 -3.375 4.25 C-2.74335938 3.45078125 -2.11171875 2.6515625 -1.4609375 1.828125 C-0.97882813 1.22484375 -0.49671875 0.6215625 0 0 Z " fill="#5399EB" transform="translate(464,648)"/>
<path d="M0 0 C0.66 0.66 1.32 1.32 2 2 C0.92643323 3.15498897 -0.15929788 4.29867867 -1.25 5.4375 C-1.85328125 6.07558594 -2.4565625 6.71367187 -3.078125 7.37109375 C-5.10048016 9.08516306 -6.41270605 9.59358878 -9 10 C-7.61811547 6.78956118 -6.07578097 4.95063635 -3.375 2.75 C-2.74335938 2.22921875 -2.11171875 1.7084375 -1.4609375 1.171875 C-0.73777344 0.59179688 -0.73777344 0.59179688 0 0 Z " fill="#5EABEF" transform="translate(430,487)"/>
<path d="M0 0 C3.2826932 1.49076434 5.93077441 3.38620321 8.75 5.625 C9.94882812 6.57246094 9.94882812 6.57246094 11.171875 7.5390625 C11.77515625 8.02117187 12.3784375 8.50328125 13 9 C11.26171875 9.703125 11.26171875 9.703125 9 10 C6.89453125 8.671875 6.89453125 8.671875 4.8125 6.75 C4.11769531 6.12609375 3.42289063 5.5021875 2.70703125 4.859375 C1 3 1 3 0 0 Z " fill="#5AA7F0" transform="translate(664,301)"/>
<path d="M0 0 C0.33 0 0.66 0 1 0 C1 5.61 1 11.22 1 17 C2.32 17.33 3.64 17.66 5 18 C3.34385343 18.38218767 1.67542976 18.71395102 0 19 C-1 18 -1 18 -1.1328125 16.25 C-1.11374984 10.75995455 -0.69169796 5.44712142 0 0 Z " fill="#6FA2EA" transform="translate(440,698)"/>
<path d="M0 0 C0.68964844 0.20496094 1.37929688 0.40992188 2.08984375 0.62109375 C8.0949719 2.34272857 13.77409051 3.48967955 20 4 C20 4.33 20 4.66 20 5 C17.4149133 5.13526616 14.83691248 5.23417653 12.25 5.3125 C11.52039063 5.35439453 10.79078125 5.39628906 10.0390625 5.43945312 C7.890625 5.48828125 7.890625 5.48828125 4 5 C1.484375 2.48046875 1.484375 2.48046875 0 0 Z " fill="#3A69D8" transform="translate(756,596)"/>
<path d="M0 0 C2.34926671 4.5178206 4.38964228 9.16892683 6 14 C3.33595424 12.98949988 2.02292172 12.02766415 0.1875 9.8125 C-1.3464813 6.17938639 -0.81890795 3.79675502 0 0 Z " fill="#5B9CE7" transform="translate(539,292)"/>
<path d="M0 0 C0.66 0.33 1.32 0.66 2 1 C-0.11057806 5.22115612 -1.60178462 6.46062462 -6 8 C-7.77277259 9.52007842 -7.77277259 9.52007842 -9 11 C-9.66 10.67 -10.32 10.34 -11 10 C-5.555 5.05 -5.555 5.05 0 0 Z " fill="#60AEEF" transform="translate(620,325)"/>
<path d="M0 0 C0.66 0 1.32 0 2 0 C5.04157942 5.22771463 6.50610724 8.92671312 6 15 C3.99682917 11.99524375 2.95674107 9.31064828 1.78125 5.9375 C0.96840857 3.73238039 0.96840857 3.73238039 -1 1 C-0.67 0.67 -0.34 0.34 0 0 Z " fill="#5584DF" transform="translate(783,561)"/>
<path d="M0 0 C0.33 0.99 0.66 1.98 1 3 C-0.625 5 -0.625 5 -3 7 C-6.25 7.25 -6.25 7.25 -9 7 C-8.67 6.01 -8.34 5.02 -8 4 C-6.15234375 3.26953125 -6.15234375 3.26953125 -3.9375 2.8125 C-3.20402344 2.65394531 -2.47054687 2.49539063 -1.71484375 2.33203125 C-0.86599609 2.16767578 -0.86599609 2.16767578 0 2 C0 1.34 0 0.68 0 0 Z " fill="#4E78D4" transform="translate(527,840)"/>
<path d="M0 0 C1 3 1 3 0.109375 4.82421875 C-0.33921875 5.43910156 -0.7878125 6.05398438 -1.25 6.6875 C-1.68828125 7.31011719 -2.1265625 7.93273437 -2.578125 8.57421875 C-3.04734375 9.04472656 -3.5165625 9.51523437 -4 10 C-4.99 10 -5.98 10 -7 10 C-5.33248852 6.05860922 -2.77289351 3.2107188 0 0 Z " fill="#467CE2" transform="translate(726,498)"/>
<path d="M0 0 C0.640625 1.76953125 0.640625 1.76953125 1 4 C0.109375 5.88671875 0.109375 5.88671875 -1.25 7.6875 C-1.68828125 8.28949219 -2.1265625 8.89148438 -2.578125 9.51171875 C-4 11 -4 11 -7 12 C-5.44298069 7.32894208 -2.91552627 3.91294315 0 0 Z " fill="#457CE3" transform="translate(736,483)"/>
<path d="M0 0 C0.66 0.99 1.32 1.98 2 3 C0.35 5.97 -1.3 8.94 -3 12 C-3.66 11.67 -4.32 11.34 -5 11 C-3.77472971 6.94718288 -2.30119506 3.55639236 0 0 Z " fill="#58A6EF" transform="translate(527,441)"/>
<path d="M0 0 C6.18204489 2.17206983 6.18204489 2.17206983 8 5 C7.77669287 8.64734979 7.61627165 10.38372835 5 13 C5.33 10.36 5.66 7.72 6 5 C5.38125 4.9175 4.7625 4.835 4.125 4.75 C2 4 2 4 0.75 1.9375 C0.5025 1.298125 0.255 0.65875 0 0 Z " fill="#6699E8" transform="translate(522,669)"/>
<path d="M0 0 C-0.66 0 -1.32 0 -2 0 C-2 0.66 -2 1.32 -2 2 C-2.66 2 -3.32 2 -4 2 C-4 3.32 -4 4.64 -4 6 C-6.475 5.01 -6.475 5.01 -9 4 C-9 3.01 -9 2.02 -9 1 C-3.375 -1.125 -3.375 -1.125 0 0 Z " fill="#5EA3EB" transform="translate(460,589)"/>
<path d="M0 0 C1.25955231 3.77865693 0.48087189 5.03411786 -0.9375 8.6875 C-1.31777344 9.68136719 -1.69804688 10.67523438 -2.08984375 11.69921875 C-2.39019531 12.45847656 -2.69054687 13.21773438 -3 14 C-3.33 14 -3.66 14 -4 14 C-3.88557539 12.39504433 -3.75805306 10.79101881 -3.625 9.1875 C-3.55539062 8.29417969 -3.48578125 7.40085937 -3.4140625 6.48046875 C-2.95368214 3.72252981 -2.00471518 2.00471518 0 0 Z " fill="#5790E7" transform="translate(766,422)"/>
<path d="M0 0 C3.375 -0.125 3.375 -0.125 7 0 C7.66 0.66 8.32 1.32 9 2 C3.61509359 2.91657981 -1.54230189 3.11138159 -7 3 C-6.67 2.34 -6.34 1.68 -6 1 C-3.03 1.495 -3.03 1.495 0 2 C0 1.34 0 0.68 0 0 Z " fill="#588AE2" transform="translate(408,765)"/>
<path d="M0 0 C4.43458973 1.3937282 6.87378374 3.60582235 10 7 C5.1746274 6.58639663 3.13078071 4.5780351 0 1 C0 0.67 0 0.34 0 0 Z " fill="#426CD5" transform="translate(584,724)"/>
<path d="M0 0 C0 0.99 0 1.98 0 3 C-4.455 3.495 -4.455 3.495 -9 4 C-6.30958923 -1.38082155 -5.46538656 -1.29443366 0 0 Z " fill="#5191EA" transform="translate(370,710)"/>
<path d="M0 0 C0.75 1.625 0.75 1.625 1 4 C-0.75 7.25 -0.75 7.25 -3 10 C-3.99 10 -4.98 10 -6 10 C-4.6302836 6.00499382 -2.74277578 3.19990508 0 0 Z " fill="#5BAAF0" transform="translate(559,391)"/>
<path d="M0 0 C3.40012889 0.77546799 5.03982403 1.49163811 7.5625 3.8125 C7.2325 4.4725 6.9025 5.1325 6.5625 5.8125 C5.2425 5.1525 3.9225 4.4925 2.5625 3.8125 C2.5625 3.1525 2.5625 2.4925 2.5625 1.8125 C-0.4075 1.8125 -3.3775 1.8125 -6.4375 1.8125 C-3.4375 -0.1875 -3.4375 -0.1875 0 0 Z " fill="#69A5E5" transform="translate(551.4375,285.1875)"/>
<path d="M0 0 C0.66 0.33 1.32 0.66 2 1 C-0.77280706 4.08089673 -3.06326356 5.68775452 -7 7 C-7.66 6.34 -8.32 5.68 -9 5 C-7.54735962 4.1361871 -6.0876837 3.28419546 -4.625 2.4375 C-3.40683594 1.72400391 -3.40683594 1.72400391 -2.1640625 0.99609375 C-1.44992187 0.66738281 -0.73578125 0.33867188 0 0 Z " fill="#538BE5" transform="translate(475,717)"/>
<path d="M0 0 C0.75 1.6875 0.75 1.6875 1 4 C-1.19434113 7.41341953 -3.20764006 9.51014431 -7 11 C-6.52648061 6.73832553 -3.99978097 4.84979192 -1 2 C-0.67 1.34 -0.34 0.68 0 0 Z " fill="#3D69D6" transform="translate(614,711)"/>
<path d="M0 0 C1.12588014 0.95729916 2.2506715 1.91587895 3.375 2.875 C4.00148438 3.40867187 4.62796875 3.94234375 5.2734375 4.4921875 C6.55836651 5.61432007 7.79371975 6.79371975 9 8 C5.39703406 8.41176754 4.21597933 8.1535853 1.1875 6 C0.465625 5.34 -0.25625 4.68 -1 4 C-0.67 2.68 -0.34 1.36 0 0 Z " fill="#5C9CE7" transform="translate(109,693)"/>
<path d="M0 0 C-1.7902061 0.67057887 -3.58221489 1.3363469 -5.375 2 C-6.37273437 2.37125 -7.37046875 2.7425 -8.3984375 3.125 C-11 4 -11 4 -13 4 C-13 3.01 -13 2.02 -13 1 C-11.58622218 0.63447197 -10.16879424 0.28304505 -8.75 -0.0625 C-7.96109375 -0.25972656 -7.1721875 -0.45695313 -6.359375 -0.66015625 C-3.89605178 -1.01497267 -2.34395868 -0.76877544 0 0 Z " fill="#62AAEF" transform="translate(447,555)"/>
<path d="M0 0 C0.33 0 0.66 0 1 0 C1.35915493 6.34507042 1.35915493 6.34507042 -0.0625 8.9375 C-3.01168691 10.55479605 -5.70867559 10.18630138 -9 10 C-9.33 9.34 -9.66 8.68 -10 8 C-7.69 8.33 -5.38 8.66 -3 9 C-2.67 7.68 -2.34 6.36 -2 5 C-1.34 5 -0.68 5 0 5 C0 3.35 0 1.7 0 0 Z " fill="#5B8ADC" transform="translate(876,450)"/>
<path d="M0 0 C0.66 0.33 1.32 0.66 2 1 C0.85546875 2.48828125 0.85546875 2.48828125 -1 4 C-3.69921875 4.29296875 -3.69921875 4.29296875 -6.6875 4.1875 C-7.68136719 4.16042969 -8.67523437 4.13335938 -9.69921875 4.10546875 C-10.45847656 4.07066406 -11.21773437 4.03585937 -12 4 C-12.33 3.01 -12.66 2.02 -13 1 C-12.31292969 1.01160156 -11.62585938 1.02320313 -10.91796875 1.03515625 C-9.56638672 1.04869141 -9.56638672 1.04869141 -8.1875 1.0625 C-6.84751953 1.07990234 -6.84751953 1.07990234 -5.48046875 1.09765625 C-2.86586209 1.11009967 -2.86586209 1.11009967 0 0 Z " fill="#5C86E1" transform="translate(777,590)"/>
<path d="M0 0 C0.99 0 1.98 0 3 0 C1.44499019 3.81684226 -1.03595495 6.19195732 -4 9 C-3.47557578 5.2241456 -2.67345333 2.77627845 0 0 Z " fill="#4C75D8" transform="translate(619,705)"/>
<path d="M0 0 C0.66 0.33 1.32 0.66 2 1 C1.40917986 2.48454806 0.80187345 3.96254351 0.1875 5.4375 C-0.14894531 6.26121094 -0.48539063 7.08492187 -0.83203125 7.93359375 C-2 10 -2 10 -5 11 C-3.55049545 7.2089881 -1.84827434 3.6125362 0 0 Z " fill="#3C68D9" transform="translate(648,664)"/>
<path d="M0 0 C0.33 0.99 0.66 1.98 1 3 C1.66 3 2.32 3 3 3 C3 3.99 3 4.98 3 6 C3.66 6 4.32 6 5 6 C5 6.66 5 7.32 5 8 C6.65 8 8.3 8 10 8 C10 8.33 10 8.66 10 9 C6.42236811 9.32523926 4.60457419 9.42956587 1.625 7.3125 C-0.27258004 4.61209763 -0.35882213 3.22939919 0 0 Z " fill="#5C8DDD" transform="translate(836,451)"/>
<path d="M0 0 C0.66 0.33 1.32 0.66 2 1 C2 3 2 3 1.4375 5.5 C0.74658685 7.98875759 0.74658685 7.98875759 2 10 C1.01 9.67 0.02 9.34 -1 9 C-1.625 6.1875 -1.625 6.1875 -2 3 C-1.34 2.01 -0.68 1.02 0 0 Z " fill="#557DD2" transform="translate(516,836)"/>
<path d="M0 0 C1 4 1 4 0.00390625 5.703125 C-1.33072917 7.13541667 -2.66536458 8.56770833 -4 10 C-4.66 9.34 -5.32 8.68 -6 8 C-4.02 5.36 -2.04 2.72 0 0 Z " fill="#498CE6" transform="translate(145,695)"/>
<path d="M0 0 C0.66 0 1.32 0 2 0 C1.40312566 3.34249629 0.26396123 5.46436342 -2 8 C-2.66 8 -3.32 8 -4 8 C-2.87548273 5.0280615 -1.77706209 2.66559313 0 0 Z " fill="#58A8EF" transform="translate(548,407)"/>
<path d="M0 0 C3.81684226 1.55500981 6.19195732 4.03595495 9 7 C5.36891547 6.69740962 4.21859619 6.2363202 1.6875 3.5 C0 1 0 1 0 0 Z " fill="#589BEC" transform="translate(720,345)"/>
<path d="M0 0 C-0.99 0.495 -0.99 0.495 -2 1 C-2 1.66 -2 2.32 -2 3 C-4.97 3 -7.94 3 -11 3 C-7.72430636 -0.27569364 -4.48909309 -0.12469703 0 0 Z " fill="#3F73DD" transform="translate(433,761)"/>
<path d="M0 0 C4.83256305 0.41421969 6.82679218 2.46413986 10 6 C8.35 6 6.7 6 5 6 C4.731875 5.195625 4.46375 4.39125 4.1875 3.5625 C3.795625 2.716875 3.40375 1.87125 3 1 C2.01 0.67 1.02 0.34 0 0 Z " fill="#5BA1EC" transform="translate(454,619)"/>
<path d="M0 0 C0.66 0.33 1.32 0.66 2 1 C0.10595266 4.34243648 -0.94091591 4.97997149 -4.6875 6.25 C-6.3271875 6.62125 -6.3271875 6.62125 -8 7 C-5.42215154 4.35247996 -3.08351902 2.05567935 0 0 Z " fill="#61ADEF" transform="translate(642,309)"/>
<path d="M0 0 C0.66 0.33 1.32 0.66 2 1 C0.35 2.98 -1.3 4.96 -3 7 C-4.32 6.67 -5.64 6.34 -7 6 C-4.69 4.02 -2.38 2.04 0 0 Z " fill="#5A94E5" transform="translate(333,732)"/>
<path d="M0 0 C3.93673644 1.31224548 6.22719294 2.91910327 9 6 C4.25 5.125 4.25 5.125 2 4 C2 3.34 2 2.68 2 2 C1.34 2 0.68 2 0 2 C0 1.34 0 0.68 0 0 Z " fill="#518FE6" transform="translate(216,701)"/>
<path d="M0 0 C2.3125 0.1875 2.3125 0.1875 5 1 C6.8125 3.5625 6.8125 3.5625 8 6 C4.08597051 4.73058503 2.20927127 3.48832306 0 0 Z " fill="#5696EC" transform="translate(487,619)"/>
<path d="M0 0 C0.66 0.33 1.32 0.66 2 1 C1.979375 1.928125 1.95875 2.85625 1.9375 3.8125 C1.84230396 7.02286011 1.84230396 7.02286011 3 10 C1.68 9.34 0.36 8.68 -1 8 C-1.125 2.25 -1.125 2.25 0 0 Z " fill="#5A96DF" transform="translate(269,564)"/>
<path d="M0 0 C0 3 0 3 -1.3125 4.38671875 C-2.875 5.59114583 -4.4375 6.79557292 -6 8 C-5.8125 5.6875 -5.8125 5.6875 -5 3 C-2.4375 1.1875 -2.4375 1.1875 0 0 Z " fill="#5587E4" transform="translate(694,538)"/>
<path d="M0 0 C2.03144641 0.93446535 4.03533587 1.93224776 6 3 C5.67 3.66 5.34 4.32 5 5 C4.67 4.67 4.34 4.34 4 4 C2.48071962 3.92820036 0.95832518 3.91607993 -0.5625 3.9375 C-1.80193359 3.95103516 -1.80193359 3.95103516 -3.06640625 3.96484375 C-4.02353516 3.98224609 -4.02353516 3.98224609 -5 4 C-3.36587557 2.29159719 -2.13093906 1.06546953 0 0 Z " fill="#5F8AD4" transform="translate(480,163)"/>
<path d="M0 0 C5.53846154 0.61538462 5.53846154 0.61538462 7.875 2.5625 C8.431875 3.2740625 8.431875 3.2740625 9 4 C8.01 4.33 7.02 4.66 6 5 C2.8125 3.125 2.8125 3.125 0 1 C0 0.67 0 0.34 0 0 Z " fill="#5492E8" transform="translate(205,696)"/>
<path d="M0 0 C-5 2.5 -5 2.5 -10 5 C-9.625 3.0625 -9.625 3.0625 -9 1 C-6.04335481 -0.4783226 -3.25770263 -0.06032783 0 0 Z " fill="#619EE7" transform="translate(122,669)"/>
<path d="M0 0 C0 3.86695678 -1.41909971 6.5088452 -3 10 C-3.66 8.68 -4.32 7.36 -5 6 C-4.01 5.67 -3.02 5.34 -2 5 C-2.33 4.01 -2.66 3.02 -3 2 C-2.01 1.34 -1.02 0.68 0 0 Z " fill="#5F9FEC" transform="translate(441,656)"/>
<path d="M0 0 C2.7972908 2.06756277 3.02692273 3.14440371 3.6875 6.6875 C3.790625 7.780625 3.89375 8.87375 4 10 C1.16625119 6.79663178 0.4794463 4.21912747 0 0 Z " fill="#5796E9" transform="translate(692,402)"/>
<path d="M0 0 C0.66 0.33 1.32 0.66 2 1 C0.68 2.65 -0.64 4.3 -2 6 C-3.32 5.67 -4.64 5.34 -6 5 C-4.02 3.35 -2.04 1.7 0 0 Z " fill="#528BE3" transform="translate(299,758)"/>
<path d="M0 0 C0.66 0.33 1.32 0.66 2 1 C0.68 2.65 -0.64 4.3 -2 6 C-3.32 5.67 -4.64 5.34 -6 5 C-4.02 3.35 -2.04 1.7 0 0 Z " fill="#5590E6" transform="translate(324,739)"/>
<path d="M0 0 C0.66 0 1.32 0 2 0 C1.42655063 2.86724686 1.1385485 3.8614515 -1 6 C-1.99 5.67 -2.98 5.34 -4 5 C-2.71937515 3.2925002 -1.38232443 1.62626404 0 0 Z " fill="#436CD6" transform="translate(601,728)"/>
<path d="M0 0 C0.66 0.33 1.32 0.66 2 1 C0.68 2.65 -0.64 4.3 -2 6 C-3.32 5.67 -4.64 5.34 -6 5 C-4.02 3.35 -2.04 1.7 0 0 Z " fill="#558DE7" transform="translate(485,710)"/>
<path d="M0 0 C2.125 0.375 2.125 0.375 4 1 C-0.75 5.875 -0.75 5.875 -3 7 C-2.25 2.25 -2.25 2.25 0 0 Z " fill="#5483DF" transform="translate(758,560)"/>
<path d="M0 0 C-0.66 1.98 -1.32 3.96 -2 6 C-2.66 5.67 -3.32 5.34 -4 5 C-4 4.34 -4 3.68 -4 3 C-5.32 2.34 -6.64 1.68 -8 1 C-2.25 0 -2.25 0 0 0 Z " fill="#68AAEB" transform="translate(482,552)"/>
<path d="M0 0 C0.88492145 2.47778006 1.11637742 3.66056586 0.25 6.1875 C-1 8 -1 8 -4 9 C-2.94124926 5.59687262 -1.99097846 2.98646769 0 0 Z " fill="#417AE2" transform="translate(747,464)"/>
<path d="M0 0 C1.9375 0.8125 1.9375 0.8125 4 2 C4.33 2.99 4.66 3.98 5 5 C2.0625 4.625 2.0625 4.625 -1 4 C-1.33 3.34 -1.66 2.68 -2 2 C-1.34 2 -0.68 2 0 2 C0 1.34 0 0.68 0 0 Z " fill="#4D7FDB" transform="translate(418,409)"/>
<path d="M0 0 C2.31 1.65 4.62 3.3 7 5 C5.68 5.33 4.36 5.66 3 6 C1.25 4.75 1.25 4.75 0 3 C0 2.01 0 1.02 0 0 Z " fill="#56A1EF" transform="translate(695,325)"/>
<path d="M0 0 C-2 2 -2 2 -5.625 2.125 C-6.73875 2.08375 -7.8525 2.0425 -9 2 C-5.945634 -1.054366 -3.9532319 -1.22686507 0 0 Z " fill="#3D74DE" transform="translate(443,759)"/>
<path d="M0 0 C2.31 1.65 4.62 3.3 7 5 C6.01 5.33 5.02 5.66 4 6 C1.8125 4.75 1.8125 4.75 0 3 C0 2.01 0 1.02 0 0 Z " fill="#5592E7" transform="translate(226,707)"/>
<path d="M0 0 C-0.33 0.66 -0.66 1.32 -1 2 C-2.98 2 -4.96 2 -7 2 C-7 1.34 -7 0.68 -7 0 C-4.3333581 -1.33332095 -2.83319697 -0.67102033 0 0 Z " fill="#509CEB" transform="translate(453,552)"/>
<path d="M0 0 C2.31 1.65 4.62 3.3 7 5 C5.68 5.33 4.36 5.66 3 6 C0 2.25 0 2.25 0 0 Z " fill="#59A0EC" transform="translate(713,339)"/>
<path d="M0 0 C4 1 4 1 4 1 Z " fill="#5895E6" transform="translate(656,472)"/>
<path d="" fill="#6EADEC" transform="translate(0,0)"/>
<path d="M0 0 C0.66 0.66 1.32 1.32 2 2 C1.34 2 0.68 2 0 2 C0 1.34 0 0.68 0 0 Z " fill="#66ABF0" transform="translate(705,315)"/>
<path d="M0 0 C2 1 2 1 2 1 Z " fill="#659AE7" transform="translate(224,725)"/>
<path d="" fill="#61A0EC" transform="translate(0,0)"/>
<path d="" fill="#5D88DB" transform="translate(0,0)"/>
<path d="M0 0 C2 1 2 1 2 1 Z " fill="#6FB1EA" transform="translate(452,472)"/>
<path d="" fill="#609CED" transform="translate(0,0)"/>
<path d="M0 0 C2 1 2 1 2 1 Z " fill="#5E8BDA" transform="translate(428,399)"/>
<path d="M0 0 C2 1 2 1 2 1 Z " fill="#608AD4" transform="translate(411,384)"/>
<path d="M0 0 C2 1 2 1 2 1 Z " fill="#608BCF" transform="translate(504,184)"/>
<path d="" fill="#455163" transform="translate(0,0)"/>
<path d="" fill="#5878C0" transform="translate(0,0)"/>
<path d="" fill="#5D87D0" transform="translate(0,0)"/>
<path d="" fill="#6091DE" transform="translate(0,0)"/>
<path d="" fill="#5F91E1" transform="translate(0,0)"/>
<path d="" fill="#6093DF" transform="translate(0,0)"/>
<path d="" fill="#5D8FDE" transform="translate(0,0)"/>
<path d="" fill="#6499E3" transform="translate(0,0)"/>
<path d="" fill="#6399E5" transform="translate(0,0)"/>
<path d="" fill="#6497E6" transform="translate(0,0)"/>
<path d="" fill="#6499E3" transform="translate(0,0)"/>
<path d="" fill="#669AE5" transform="translate(0,0)"/>
<path d="" fill="#577CD2" transform="translate(0,0)"/>
<path d="" fill="#5B90E3" transform="translate(0,0)"/>
<path d="" fill="#69A1E9" transform="translate(0,0)"/>
<path d="" fill="#5E93E4" transform="translate(0,0)"/>
<path d="" fill="#69A1E4" transform="translate(0,0)"/>
<path d="" fill="#649CE4" transform="translate(0,0)"/>
<path d="" fill="#669BE5" transform="translate(0,0)"/>
<path d="" fill="#679CE4" transform="translate(0,0)"/>
<path d="" fill="#6395D2" transform="translate(0,0)"/>
<path d="" fill="#669BDF" transform="translate(0,0)"/>
<path d="" fill="#6BA0E3" transform="translate(0,0)"/>
<path d="" fill="#6BA2E5" transform="translate(0,0)"/>
<path d="" fill="#5D8ADF" transform="translate(0,0)"/>
<path d="" fill="#608DDF" transform="translate(0,0)"/>
<path d="" fill="#5D8EE5" transform="translate(0,0)"/>
<path d="" fill="#60A0E9" transform="translate(0,0)"/>
<path d="" fill="#5E8DE4" transform="translate(0,0)"/>
<path d="" fill="#6090E5" transform="translate(0,0)"/>
<path d="" fill="#6C9FDA" transform="translate(0,0)"/>
<path d="" fill="#6B9EDC" transform="translate(0,0)"/>
<path d="" fill="#5C86DE" transform="translate(0,0)"/>
<path d="" fill="#6AABEE" transform="translate(0,0)"/>
<path d="" fill="#66A6EB" transform="translate(0,0)"/>
<path d="" fill="#68AAEE" transform="translate(0,0)"/>
<path d="" fill="#72A1DC" transform="translate(0,0)"/>
<path d="" fill="#6199E9" transform="translate(0,0)"/>
<path d="" fill="#5D85DD" transform="translate(0,0)"/>
<path d="" fill="#5C81CB" transform="translate(0,0)"/>
<path d="" fill="#6DABEA" transform="translate(0,0)"/>
<path d="" fill="#5A84DD" transform="translate(0,0)"/>
<path d="" fill="#6FADED" transform="translate(0,0)"/>
<path d="" fill="#5A87E1" transform="translate(0,0)"/>
<path d="" fill="#6BACE9" transform="translate(0,0)"/>
<path d="" fill="#68A8ED" transform="translate(0,0)"/>
<path d="" fill="#608AD9" transform="translate(0,0)"/>
<path d="" fill="#608ADD" transform="translate(0,0)"/>
<path d="" fill="#6EAFEC" transform="translate(0,0)"/>
<path d="" fill="#6FB1EA" transform="translate(0,0)"/>
<path d="" fill="#71B5EC" transform="translate(0,0)"/>
<path d="" fill="#71B3EB" transform="translate(0,0)"/>
<path d="" fill="#70B4EF" transform="translate(0,0)"/>
<path d="" fill="#658DD0" transform="translate(0,0)"/>
<path d="" fill="#70B1EE" transform="translate(0,0)"/>
<path d="" fill="#6693D5" transform="translate(0,0)"/>
<path d="" fill="#6DB2EE" transform="translate(0,0)"/>
<path d="" fill="#638CCB" transform="translate(0,0)"/>
<path d="" fill="#6693D6" transform="translate(0,0)"/>
<path d="" fill="#6094E4" transform="translate(0,0)"/>
<path d="" fill="#5D99EA" transform="translate(0,0)"/>
<path d="" fill="#62A6ED" transform="translate(0,0)"/>
<path d="" fill="#6599E5" transform="translate(0,0)"/>
<path d="" fill="#6DB1EC" transform="translate(0,0)"/>
<path d="" fill="#60A0ED" transform="translate(0,0)"/>
<path d="" fill="#61A0EA" transform="translate(0,0)"/>
<path d="" fill="#5D8AD8" transform="translate(0,0)"/>
<path d="" fill="#5E8CD9" transform="translate(0,0)"/>
<path d="" fill="#5F8AD9" transform="translate(0,0)"/>
<path d="" fill="#61A0EC" transform="translate(0,0)"/>
<path d="" fill="#6DB3EE" transform="translate(0,0)"/>
<path d="" fill="#65A4EC" transform="translate(0,0)"/>
<path d="" fill="#6AAAEA" transform="translate(0,0)"/>
<path d="" fill="#608ED6" transform="translate(0,0)"/>
<path d="" fill="#5F8CD5" transform="translate(0,0)"/>
<path d="" fill="#5E87D2" transform="translate(0,0)"/>
<path d="" fill="#6AB2EE" transform="translate(0,0)"/>
<path d="" fill="#64A5EA" transform="translate(0,0)"/>
<path d="" fill="#6FB0F0" transform="translate(0,0)"/>
<path d="" fill="#6AB2EE" transform="translate(0,0)"/>
<path d="" fill="#6EB0ED" transform="translate(0,0)"/>
<path d="" fill="#6BB1ED" transform="translate(0,0)"/>
<path d="" fill="#65ABEE" transform="translate(0,0)"/>
<path d="" fill="#64ACEE" transform="translate(0,0)"/>
<path d="" fill="#66ACF0" transform="translate(0,0)"/>
<path d="" fill="#65A6E6" transform="translate(0,0)"/>
<path d="" fill="#69AFEF" transform="translate(0,0)"/>
<path d="" fill="#6DB2ED" transform="translate(0,0)"/>
<path d="" fill="#6AB0ED" transform="translate(0,0)"/>
<path d="" fill="#67A8E5" transform="translate(0,0)"/>
<path d="" fill="#6DA5E0" transform="translate(0,0)"/>
<path d="" fill="#6DB2EC" transform="translate(0,0)"/>
<path d="" fill="#6BB0EF" transform="translate(0,0)"/>
<path d="" fill="#6EA4DF" transform="translate(0,0)"/>
<path d="" fill="#68ADEA" transform="translate(0,0)"/>
<path d="" fill="#70AFE7" transform="translate(0,0)"/>
<path d="" fill="#69AAE2" transform="translate(0,0)"/>
<path d="" fill="#69A5DA" transform="translate(0,0)"/>
<path d="" fill="#6187C8" transform="translate(0,0)"/>
<path d="" fill="#5B87D2" transform="translate(0,0)"/>
<path d="" fill="#5787D3" transform="translate(0,0)"/>
</svg>
